<svg width="180" height="180" viewBox="0 0 180 180" fill="none" xmlns="http://www.w3.org/2000/svg">
<g clip-path="url(#clip0_435_901)">
<rect width="180" height="180" fill="black"/>
<path d="M179.198 36.8569C173.889 36.8569 169.149 37.9944 164.978 40.2696C160.807 42.4688 157.243 45.6919 154.285 49.9388C151.328 54.1857 149.053 59.3805 147.46 65.5233C145.943 71.5903 145.185 78.4915 145.185 86.2269C145.185 96.6924 146.512 105.49 149.166 112.618C151.821 119.747 155.84 125.131 161.224 128.772C166.685 132.412 173.51 134.232 181.7 134.232C189.133 134.232 196.261 133.208 203.087 131.16C209.988 129.113 216.927 126.648 223.904 123.766V161.761C216.548 165.022 209.002 167.373 201.266 168.814C193.607 170.255 185.454 170.975 176.809 170.975C158.76 170.975 143.971 167.411 132.444 160.282C120.993 153.077 112.537 143.105 107.077 130.364C101.692 117.624 99 102.835 99 85.9994C99 73.4104 100.744 61.8832 104.233 51.4176C107.797 40.9521 112.992 31.8895 119.817 24.23C126.643 16.4946 135.061 10.5414 145.071 6.37033C155.157 2.12344 166.685 0 179.653 0C187.692 0 196.147 0.947965 205.02 2.8439C213.969 4.66399 222.69 7.62164 231.184 11.7168L217.42 47.0949C211.353 44.2131 205.21 41.7863 198.991 39.8145C192.773 37.8428 186.175 36.8569 179.198 36.8569Z" fill="white"/>
<path d="M23.3199 201.114C18.2388 201.114 13.8024 200.848 10.0105 200.317C6.14281 199.862 2.80598 199.332 0 198.725V163.802C2.42679 164.257 5.00526 164.75 7.73539 165.281C10.4655 165.887 13.4232 166.191 16.6083 166.191C21.9928 166.191 26.1638 165.091 29.1215 162.892C32.155 160.693 34.2784 157.394 35.4918 152.995C36.7052 148.597 37.3119 143.098 37.3119 136.5V-17.4111H82.473V132.633C82.473 149.317 79.9703 162.664 74.9651 172.675C69.9598 182.685 63.0207 189.928 54.1478 194.402C45.2748 198.877 34.9989 201.114 23.3199 201.114Z" fill="white"/>
</g>
<defs>
<clipPath id="clip0_435_901">
<rect width="180" height="180" fill="white"/>
</clipPath>
</defs>
</svg>
